<svg width="36" height="36" viewBox="0 0 36 36" fill="none" xmlns="http://www.w3.org/2000/svg">
<path fill-rule="evenodd" clip-rule="evenodd" d="M16.3373 2.99032C17.4163 2.62888 18.5837 2.62888 19.6627 2.99032C21.1605 3.49132 23.9047 4.46482 27.897 6.09232C30.7597 7.26007 32.7998 8.16682 34.1805 8.81332C35.0865 9.23707 35.6235 10.0808 35.6235 10.9958C35.6235 11.9123 35.0865 12.7553 34.1805 13.1791C32.4736 13.9714 30.7494 14.7261 29.0093 15.4426C29.0393 16.1693 29.0587 16.9951 29.0587 17.9251C29.0587 20.2501 28.9402 21.7486 28.8142 22.6868C28.6522 23.8928 27.948 24.9616 26.8305 25.5473C25.332 26.3341 22.476 27.3953 18.0195 27.3953C13.5622 27.3953 10.707 26.3341 9.207 25.5473C8.0895 24.9616 7.386 23.8928 7.224 22.6868C7.098 21.7486 6.9795 20.2493 6.9795 17.9258C6.9795 17.0018 6.99825 16.1813 7.02825 15.4583C6.51475 15.2453 6.03075 15.0421 5.57625 14.8486V26.1826C6.23159 26.4745 6.78831 26.95 7.1791 27.5516C7.56989 28.1532 7.778 28.8552 7.77825 29.5726C7.77885 30.5551 7.38917 31.4976 6.69494 32.1928C6.0007 32.888 5.05875 33.279 4.07625 33.2798C3.09401 33.2788 2.15237 32.8878 1.45831 32.1928C0.764259 31.4978 0.374602 30.5556 0.375 29.5733C0.375191 28.856 0.583186 28.1541 0.973834 27.5525C1.36448 26.9509 1.92106 26.4753 2.57625 26.1833V13.5301C2.30475 13.4061 2.0525 13.2893 1.8195 13.1798C0.915 12.7553 0.3765 11.9123 0.3765 10.9966C0.3765 10.0808 0.91425 9.23707 1.8195 8.81332C3.201 8.16682 5.24025 7.26007 8.10375 6.09232C12.0953 4.46482 14.8395 3.49132 16.3373 2.99032ZM9.99225 16.6591C9.98375 17.0546 9.9795 17.4768 9.9795 17.9258C9.9795 20.1533 10.0935 21.5138 10.197 22.2878C10.236 22.5758 10.386 22.7783 10.602 22.8908C11.6805 23.4571 14.0595 24.3953 18.0195 24.3953C21.9795 24.3953 24.3578 23.4578 25.437 22.8908C25.6523 22.7783 25.8022 22.5758 25.8405 22.2878C25.9447 21.5138 26.0587 20.1541 26.0587 17.9258C26.0587 17.4708 26.0543 17.0436 26.0453 16.6441C23.0438 17.8321 20.9167 18.5821 19.6627 19.0021C18.5837 19.3635 17.4163 19.3635 16.3373 19.0021C15.0893 18.5843 12.9743 17.8388 9.99225 16.6591Z" fill="#FF7636"/>
</svg>
