<svg width="36" height="36" viewBox="0 0 36 36" fill="none" xmlns="http://www.w3.org/2000/svg">
<path d="M17.9999 18.375C19.0548 18.375 19.7769 19.1661 20.1767 19.9758L21.3597 22.3615C21.4019 22.4121 21.4586 22.4494 21.5174 22.4779L23.6541 22.836C24.5409 22.9849 25.4697 23.4537 25.7822 24.434C26.0942 25.4126 25.6089 26.3343 24.9723 26.9724L23.3117 28.6468C23.2769 28.7041 23.2505 28.7958 23.2521 28.8628L23.7275 30.9352C23.9375 31.8543 23.942 33.0669 23.0111 33.7512C22.0755 34.4388 20.9189 34.0624 20.1104 33.5809L18.1058 32.3845C18.0452 32.3673 17.9525 32.367 17.8923 32.3865L15.8916 33.5808C15.081 34.0656 13.927 34.4356 12.9926 33.7483C12.0637 33.0649 12.0628 31.8559 12.2743 30.9343L12.7494 28.8628C12.751 28.7958 12.7246 28.7041 12.6899 28.6468L11.0264 26.9697C10.3938 26.3317 9.91179 25.4128 10.2212 24.4359C10.5319 23.4547 11.46 22.9851 12.348 22.8358L14.4785 22.479C14.5386 22.4526 14.5907 22.4095 14.6349 22.3617L15.8196 19.9729C16.2225 19.1644 16.9464 18.375 17.9999 18.375Z" fill="#FF7636"/>
<path fill-rule="evenodd" clip-rule="evenodd" d="M28.6515 1.95943C28.2029 1.87462 27.6915 1.87478 26.9804 1.87502C20.994 1.87699 15.0078 1.87699 9.02146 1.87502C8.31027 1.87478 7.7989 1.87462 7.35025 1.95943C5.37045 2.33366 3.82866 3.89173 3.45924 5.87458C3.36498 6.38056 3.36951 6.90316 3.37398 7.41912C3.37494 7.52911 3.37588 7.6388 3.37587 7.74797C3.37581 8.48636 3.37576 8.95885 3.43189 9.40657C3.67642 11.3571 4.70677 13.1228 6.28446 14.2881C6.64642 14.5554 7.05717 14.7852 7.69677 15.1431L7.76656 15.1821L11.6725 17.3679C13.0555 18.1419 14.1632 18.7617 15.1194 19.1821C16.1089 19.6171 17.0134 19.875 18.0009 19.875C18.9883 19.875 19.8929 19.6171 20.8822 19.1821C21.8385 18.7617 22.9462 18.1419 24.3293 17.3679L28.3041 15.1437C28.9442 14.7856 29.3552 14.5556 29.7173 14.2881C31.295 13.1228 32.3253 11.3571 32.5698 9.40657C32.6331 8.90268 32.6301 8.39224 32.6271 7.88407C32.6265 7.77421 32.6259 7.66447 32.6259 7.55491C32.6262 6.83709 32.6264 6.32425 32.5425 5.87458C32.173 3.89173 30.6313 2.33366 28.6515 1.95943ZM13.125 7.5C13.125 6.87868 12.6213 6.375 12 6.375C11.3787 6.375 10.875 6.87868 10.875 7.5V9C10.875 9.62131 11.3787 10.125 12 10.125C12.6213 10.125 13.125 9.62131 13.125 9V7.5ZM19.125 7.5C19.125 6.87868 18.6213 6.375 18 6.375C17.3787 6.375 16.875 6.87868 16.875 7.5V12C16.875 12.6213 17.3787 13.125 18 13.125C18.6213 13.125 19.125 12.6213 19.125 12V7.5ZM25.125 7.5C25.125 6.87868 24.6213 6.375 24 6.375C23.3787 6.375 22.875 6.87868 22.875 7.5V9C22.875 9.62131 23.3787 10.125 24 10.125C24.6213 10.125 25.125 9.62131 25.125 9V7.5Z" fill="#FF7636"/>
</svg>
